name C:\Users\r0593348\3dpredictsim\Results\MidTarsalJoint\Fal_s1_bCst_PF_Natali2010_ls150_MT_k1500_MTP_T10_ig24.mot
datacolumns 128
datarows 4
range 0.55726638 0.59070236
endheader
time	pelvis_tilt	pelvis_list	pelvis_rotation	pelvis_tx	pelvis_ty	pelvis_tz	hip_flexion_l	hip_adduction_l	hip_rotation_l	hip_flexion_r	hip_adduction_r	hip_rotation_r	knee_angle_l	knee_angle_r	ankle_angle_l	ankle_angle_r	subtalar_angle_l	subtalar_angle_r	mtj_angle_l	mtj_angle_r	mtp_angle_l	mtp_angle_r	lumbar_extension	lumbar_bending	lumbar_rotation	arm_flex_l	arm_add_l	arm_rot_l	arm_flex_r	arm_add_r	arm_rot_r	elbow_flex_l	elbow_flex_r	pro_sup_l	pro_sup_r	glut_med1_l/activation	glut_med2_l/activation	glut_med3_l/activation	glut_min1_l/activation	glut_min2_l/activation	glut_min3_l/activation	semimem_l/activation	semiten_l/activation	bifemlh_l/activation	bifemsh_l/activation	sar_l/activation	add_long_l/activation	add_brev_l/activation	add_mag1_l/activation	add_mag2_l/activation	add_mag3_l/activation	tfl_l/activation	pect_l/activation	grac_l/activation	glut_max1_l/activation	glut_max2_l/activation	glut_max3_l/activation	iliacus_l/activation	psoas_l/activation	quad_fem_l/activation	gem_l/activation	peri_l/activation	rect_fem_l/activation	vas_med_l/activation	vas_int_l/activation	vas_lat_l/activation	med_gas_l/activation	lat_gas_l/activation	soleus_l/activation	tib_post_l/activation	flex_dig_l/activation	flex_hal_l/activation	tib_ant_l/activation	per_brev_l/activation	per_long_l/activation	per_tert_l/activation	ext_dig_l/activation	ext_hal_l/activation	ercspn_l/activation	intobl_l/activation	extobl_l/activation	glut_med1_r/activation	glut_med2_r/activation	glut_med3_r/activation	glut_min1_r/activation	glut_min2_r/activation	glut_min3_r/activation	semimem_r/activation	semiten_r/activation	bifemlh_r/activation	bifemsh_r/activation	sar_r/activation	add_long_r/activation	add_brev_r/activation	add_mag1_r/activation	add_mag2_r/activation	add_mag3_r/activation	tfl_r/activation	pect_r/activation	grac_r/activation	glut_max1_r/activation	glut_max2_r/activation	glut_max3_r/activation	iliacus_r/activation	psoas_r/activation	quad_fem_r/activation	gem_r/activation	peri_r/activation	rect_fem_r/activation	vas_med_r/activation	vas_int_r/activation	vas_lat_r/activation	med_gas_r/activation	lat_gas_r/activation	soleus_r/activation	tib_post_r/activation	flex_dig_r/activation	flex_hal_r/activation	tib_ant_r/activation	per_brev_r/activation	per_long_r/activation	per_tert_r/activation	ext_dig_r/activation	ext_hal_r/activation	ercspn_r/activation	intobl_r/activation	extobl_r/activation	
          0.55726638	         -2.92997467	          1.94630448	         -4.99475559	          0.69658298	          0.92019095	          0.00165892	         29.68560745	          3.21050751	         -2.20507275	        -17.28900045	         -0.97416536	          6.39941129	        -13.22145425	         -6.77542904	          5.57676479	         -0.41282411	         -2.88802660	          9.39964510	         -0.00871985	          1.14765910	         -0.80661832	         17.22714660	         -2.11018299	         -0.21398240	          1.84751929	         -4.24221455	        -13.46670765	          7.31782570	          5.01763977	        -13.45594860	         16.62303556	         16.42018052	         32.79402240	         86.51662706	         86.51662706	          0.05000079	          0.05000047	          0.05311530	          0.05000031	          0.05000042	          0.05000134	          0.05928770	          0.05928761	          0.18751149	          0.05000039	          0.05000100	          0.11722635	          0.19525568	          0.21046560	          0.17088906	          0.11406147	          0.05928777	          0.05025166	          0.05975229	          0.06054022	          0.07030044	          0.10359424	          0.05000028	          0.05000035	          0.17694765	          0.05000162	          0.05000053	          0.05010033	          0.11865161	          0.11862001	          0.10203580	          0.05507842	          0.05000169	          0.05928770	          0.05000015	          0.05000086	          0.05000080	          0.51410178	          0.27248504	          0.17051922	          0.20871640	          0.48572561	          0.21544221	          0.05928778	          0.11617492	          0.10792201	          0.30803402	          0.10141176	          0.07790159	          0.31645884	          0.20991769	          0.11253751	          0.05000226	          0.05000053	          0.05000034	          0.06817820	          0.10276427	          0.05000127	          0.05000049	          0.05000056	          0.05000150	          0.05000118	          0.30645814	          0.05000242	          0.05000112	          0.05000806	          0.05000298	          0.05000204	          0.37708393	          0.60547839	          0.05000040	          0.05000098	          0.05004659	          0.19021709	          0.05000143	          0.05000087	          0.05000086	          0.29969345	          0.40590976	          0.31645329	          0.28242941	          0.28551606	          0.37737802	          0.05000006	          0.06222749	          0.15411426	          0.05000046	          0.05000011	          0.05000036	          0.05000002	          0.05000005	          0.05000009	
          0.56841171	         -2.92652809	          2.04404925	         -5.27016908	          0.71326457	          0.91918771	          0.00145335	         29.06710664	          3.58141865	         -2.01544135	        -17.13060397	         -1.27224569	          6.18850941	        -13.04579767	         -8.73345807	          5.04155319	         -1.11011901	         -3.29961841	         10.33652936	         -0.00075380	          0.91159714	         -0.80516073	         18.24652928	         -1.92281211	         -0.43380008	          1.91691006	         -5.08929243	        -13.46978134	          6.97312893	          4.74862338	        -13.46965803	         16.95329687	         16.06949417	         33.93570057	         86.51662706	         86.51662706	          0.05323681	          0.05000115	          0.05000016	          0.05316478	          0.05000276	          0.05000053	          0.05000012	          0.05000031	          0.16429686	          0.05000051	          0.05001223	          0.09886256	          0.16466808	          0.27078278	          0.20252812	          0.11376306	          0.05000025	          0.05000361	          0.05039219	          0.05106323	          0.05928784	          0.12395544	          0.05000091	          0.05000108	          0.50410760	          0.11724045	          0.06750697	          0.07030089	          0.20224743	          0.20265151	          0.17365209	          0.05000001	          0.05000003	          0.05000000	          0.05000024	          0.05000064	          0.05000073	          0.57293970	          0.22979991	          0.18620741	          0.40203968	          0.50977299	          0.18398776	          0.05000006	          0.09797546	          0.09101541	          0.25977889	          0.08552505	          0.06569791	          0.26688394	          0.17703295	          0.09490792	          0.05000202	          0.05000044	          0.05000047	          0.05749778	          0.08666595	          0.11691922	          0.10361328	          0.05010496	          0.05000833	          0.05000224	          0.25844995	          0.09509818	          0.05001215	          0.05000175	          0.05000152	          0.05000135	          0.31801166	          0.55058795	          0.05000058	          0.05002973	          0.05928782	          0.16479576	          0.05000221	          0.17127872	          0.14795816	          0.25274475	          0.34232168	          0.26687927	          0.25030137	          0.24078937	          0.31826182	          0.05000004	          0.05247933	          0.14918356	          0.05000016	          0.05000004	          0.05000021	          0.05000025	          0.07030082	          0.05000010	
          0.57955704	         -2.91924426	          2.14217834	         -5.52237206	          0.73024428	          0.91819444	          0.00126790	         28.32388029	          3.87945963	         -1.76368956	        -16.90161591	         -1.56695154	          5.96683712	        -13.38510184	        -10.80956413	          4.49676501	         -1.96382123	         -3.74060078	         11.22898947	         -0.06310582	          0.64817753	         -0.83804094	         19.13004362	         -1.71563530	         -0.66122574	          1.97530674	         -5.96963403	        -13.47938637	          6.67791575	          4.40485683	        -13.48360174	         17.21219052	         15.76953599	         35.06989457	         86.51662706	         86.51662706	          0.27613417	          0.05000014	          0.27696168	          0.05000034	          0.05000028	          0.26150465	          0.07426880	          0.05000070	          0.14796494	          0.05000013	          0.05000043	          0.08337560	          0.24314388	          0.22836351	          0.17080200	          0.13476233	          0.05000098	          0.05982273	          0.11721284	          0.05000016	          0.05000023	          0.10453731	          0.05928744	          0.05000244	          0.42513627	          0.09887417	          0.15554735	          0.05928787	          0.17056435	          0.17090514	          0.14644860	          0.05928734	          0.05928762	          0.05928773	          0.05000064	          0.05000186	          0.05000258	          0.50568191	          0.27317310	          0.15703700	          0.33906005	          0.53352376	          0.15516507	          0.05000011	          0.11152283	          0.07675733	          0.34616532	          0.07212708	          0.05540602	          0.22507536	          0.14929980	          0.08004010	          0.05000185	          0.05000066	          0.05000059	          0.05000018	          0.07308952	          0.15686939	          0.14242746	          0.05928831	          0.05928564	          0.05927941	          0.21796275	          0.08336016	          0.05002218	          0.05001702	          0.05001132	          0.05004032	          0.26819348	          0.51770208	          0.05133250	          0.05000117	          0.05000019	          0.13897960	          0.10491191	          0.14444757	          0.12478020	          0.21315082	          0.28869503	          0.22507110	          0.21109031	          0.20306858	          0.26840451	          0.05000002	          0.05000097	          0.17666102	          0.05000013	          0.05000005	          0.05000016	          0.05540004	          0.05928780	          0.05927711	
          0.59070236	         -2.91003455	          2.24237662	         -5.74347725	          0.74733975	          0.91722102	          0.00107319	         27.47538118	          4.13557365	         -1.50107599	        -16.57986748	         -1.85730174	          5.74378174	        -13.75125073	        -13.02208450	          4.07142433	         -2.96816959	         -4.18152332	         12.06173328	         -0.05340407	          0.38680552	         -0.82331539	         19.78361983	         -1.50720640	         -0.89694259	          2.02523697	         -6.83825532	        -13.49382941	          6.44675509	          4.01185527	        -13.50161464	         17.40936900	         15.49436068	         36.18548592	         86.51662706	         86.51662706	          0.32637819	          0.28020254	          0.34238672	          0.14252166	          0.21932293	          0.22053886	          0.06263430	          0.09325382	          0.12478544	          0.07030418	          0.05000295	          0.07031437	          0.20505403	          0.19258929	          0.14404553	          0.15632660	          0.05000038	          0.05045150	          0.09885150	          0.21518380	          0.16239494	          0.13691767	          0.05000011	          0.05000012	          0.35853630	          0.08338527	          0.13118023	          0.05000013	          0.14384487	          0.14413361	          0.12350694	          0.05000008	          0.05000014	          0.05000001	          0.05000002	          0.05000011	          0.05000011	          0.60844714	          0.29398779	          0.16195853	          0.59550632	          0.57166228	          0.27453240	          0.07596242	          0.09405233	          0.06473286	          0.30699776	          0.06082799	          0.05000008	          0.32773860	          0.12591123	          0.06750142	          0.05000321	          0.05000023	          0.05000018	          0.05000033	          0.06164008	          0.14581956	          0.12011566	          0.05000089	          0.05000114	          0.05000069	          0.22638873	          0.07030243	          0.05000072	          0.05000140	          0.05000088	          0.05000059	          0.22617951	          0.47469201	          0.05000011	          0.05000064	          0.05000032	          0.11721137	          0.08847803	          0.12185200	          0.11720549	          0.17975952	          0.24346929	          0.18981241	          0.17802185	          0.17125690	          0.22635754	          0.05007951	          0.09526886	          0.16682856	          0.05000070	          0.10843853	          0.05000107	          0.07926060	          0.05000004	          0.05000004	
